<svg width="1373" height="368" viewBox="0 0 1373 368" fill="none" xmlns="http://www.w3.org/2000/svg">
<path d="M0.5 0.499993H93L195 297.5L297 0.499993H388.5V368H330V64.5L227.5 364.5H160.5L59 65V368H0.5V0.499993ZM473.645 0.499993H533.145V368H473.645V0.499993ZM727.676 0.499993H791.676L939.176 368H873.676L839.176 278.5H678.176L643.676 368H579.176L727.676 0.499993ZM819.176 225.5L759.176 69.5L698.676 225.5H819.176ZM984.875 0.499993H1077.38L1179.38 297.5L1281.38 0.499993H1372.88V368H1314.38V64.5L1211.88 364.5H1144.88L1043.38 65V368H984.875V0.499993Z" fill="black"/>
</svg>
